<?xml version="1.0" encoding="UTF-8" standalone="no"?>
<!DOCTYPE svg PUBLIC "-//W3C//DTD SVG 1.1//EN"
 "http://www.w3.org/Graphics/SVG/1.1/DTD/svg11.dtd">
<!-- Generated by graphviz version 3.0.0 (20220226.1711)
 -->
<!-- Title: dependencies Pages: 1 -->
<svg width="1124pt" height="247pt"
 viewBox="0.00 0.00 1124.00 246.80" xmlns="http://www.w3.org/2000/svg" xmlns:xlink="http://www.w3.org/1999/xlink">
<g id="graph0" class="graph" transform="scale(1 1) rotate(0) translate(4 242.8)">
<title>dependencies</title>
<polygon fill="white" stroke="transparent" points="-4,4 -4,-242.8 1120,-242.8 1120,4 -4,4"/>
<text text-anchor="middle" x="558" y="-8.2" font-family="sans-serif" font-size="14.00">dependencies</text>
<g id="clust1" class="cluster">
<title>cluster_AdminModule</title>
<polygon fill="none" stroke="black" stroke-dasharray="1,5" points="8,-32.8 8,-157.8 184,-157.8 184,-32.8 8,-32.8"/>
</g>
<g id="clust3" class="cluster">
<title>cluster_AdminModule_imports</title>
<polygon fill="none" stroke="black" points="16,-40.8 16,-92.8 176,-92.8 176,-40.8 16,-40.8"/>
</g>
<g id="clust13" class="cluster">
<title>cluster_AppModule</title>
<polygon fill="none" stroke="black" stroke-dasharray="1,5" points="192,-32.8 192,-230.8 482,-230.8 482,-32.8 192,-32.8"/>
</g>
<g id="clust14" class="cluster">
<title>cluster_AppModule_declarations</title>
<polygon fill="none" stroke="black" points="352,-40.8 352,-92.8 474,-92.8 474,-40.8 352,-40.8"/>
</g>
<g id="clust16" class="cluster">
<title>cluster_AppModule_imports</title>
<polygon fill="none" stroke="black" points="200,-40.8 200,-92.8 344,-92.8 344,-40.8 200,-40.8"/>
</g>
<g id="clust18" class="cluster">
<title>cluster_AppModule_bootstrap</title>
<polygon fill="none" stroke="black" points="280,-170.8 280,-222.8 404,-222.8 404,-170.8 280,-170.8"/>
</g>
<g id="clust26" class="cluster">
<title>cluster_AuthModule</title>
<polygon fill="none" stroke="black" stroke-dasharray="1,5" points="490,-32.8 490,-157.8 928,-157.8 928,-32.8 490,-32.8"/>
</g>
<g id="clust27" class="cluster">
<title>cluster_AuthModule_declarations</title>
<polygon fill="none" stroke="black" points="654,-40.8 654,-92.8 920,-92.8 920,-40.8 654,-40.8"/>
</g>
<g id="clust30" class="cluster">
<title>cluster_AuthModule_imports</title>
<polygon fill="none" stroke="black" points="498,-40.8 498,-92.8 646,-92.8 646,-40.8 498,-40.8"/>
</g>
<g id="clust40" class="cluster">
<title>cluster_PublicModule</title>
<polygon fill="none" stroke="black" stroke-dasharray="1,5" points="936,-32.8 936,-157.8 1108,-157.8 1108,-32.8 936,-32.8"/>
</g>
<g id="clust42" class="cluster">
<title>cluster_PublicModule_imports</title>
<polygon fill="none" stroke="black" points="944,-40.8 944,-92.8 1100,-92.8 1100,-40.8 944,-40.8"/>
</g>
<!-- AdminRoutingModule -->
<g id="node1" class="node">
<title>AdminRoutingModule</title>
<polygon fill="#8dd3c7" stroke="black" points="167.56,-84.8 164.56,-88.8 143.56,-88.8 140.56,-84.8 24.44,-84.8 24.44,-48.8 167.56,-48.8 167.56,-84.8"/>
<text text-anchor="middle" x="96" y="-62.6" font-family="Times,serif" font-size="14.00">AdminRoutingModule</text>
</g>
<!-- AdminModule -->
<g id="node2" class="node">
<title>AdminModule</title>
<polygon fill="#8dd3c7" stroke="black" points="145.44,-149.8 142.44,-153.8 121.44,-153.8 118.44,-149.8 46.56,-149.8 46.56,-113.8 145.44,-113.8 145.44,-149.8"/>
<text text-anchor="middle" x="96" y="-127.6" font-family="Times,serif" font-size="14.00">AdminModule</text>
</g>
<!-- AdminRoutingModule&#45;&gt;AdminModule -->
<g id="edge1" class="edge">
<title>AdminRoutingModule&#45;&gt;AdminModule</title>
<path fill="none" stroke="black" d="M96,-84.91C96,-84.91 96,-103.79 96,-103.79"/>
<polygon fill="black" stroke="black" points="92.5,-103.79 96,-113.79 99.5,-103.79 92.5,-103.79"/>
</g>
<!-- AppComponent -->
<g id="node3" class="node">
<title>AppComponent</title>
<polygon fill="#ffffb3" stroke="black" points="465.94,-84.8 360.06,-84.8 360.06,-48.8 465.94,-48.8 465.94,-84.8"/>
<text text-anchor="middle" x="413" y="-62.6" font-family="Times,serif" font-size="14.00">AppComponent</text>
</g>
<!-- AppModule -->
<g id="node4" class="node">
<title>AppModule</title>
<polygon fill="#8dd3c7" stroke="black" points="383.66,-149.8 380.66,-153.8 359.66,-153.8 356.66,-149.8 300.34,-149.8 300.34,-113.8 383.66,-113.8 383.66,-149.8"/>
<text text-anchor="middle" x="342" y="-127.6" font-family="Times,serif" font-size="14.00">AppModule</text>
</g>
<!-- AppComponent&#45;&gt;AppModule -->
<g id="edge2" class="edge">
<title>AppComponent&#45;&gt;AppModule</title>
<path fill="none" stroke="black" d="M372.06,-84.91C372.06,-84.91 372.06,-103.79 372.06,-103.79"/>
<polygon fill="black" stroke="black" points="368.56,-103.79 372.06,-113.79 375.56,-103.79 368.56,-103.79"/>
</g>
<!-- AppComponent  -->
<g id="node6" class="node">
<title>AppComponent </title>
<polygon fill="#80b1d3" stroke="black" points="396.44,-214.8 287.56,-214.8 287.56,-178.8 396.44,-178.8 396.44,-214.8"/>
<text text-anchor="middle" x="342" y="-192.6" font-family="Times,serif" font-size="14.00">AppComponent </text>
</g>
<!-- AppModule&#45;&gt;AppComponent  -->
<g id="edge4" class="edge">
<title>AppModule&#45;&gt;AppComponent </title>
<path fill="none" stroke="black" stroke-dasharray="1,5" d="M342,-149.91C342,-149.91 342,-168.79 342,-168.79"/>
<polygon fill="black" stroke="black" points="338.5,-168.79 342,-178.79 345.5,-168.79 338.5,-168.79"/>
</g>
<!-- AppRoutingModule -->
<g id="node5" class="node">
<title>AppRoutingModule</title>
<polygon fill="#8dd3c7" stroke="black" points="336.28,-84.8 333.28,-88.8 312.28,-88.8 309.28,-84.8 207.72,-84.8 207.72,-48.8 336.28,-48.8 336.28,-84.8"/>
<text text-anchor="middle" x="272" y="-62.6" font-family="Times,serif" font-size="14.00">AppRoutingModule</text>
</g>
<!-- AppRoutingModule&#45;&gt;AppModule -->
<g id="edge3" class="edge">
<title>AppRoutingModule&#45;&gt;AppModule</title>
<path fill="none" stroke="black" d="M318.28,-84.91C318.28,-84.91 318.28,-103.79 318.28,-103.79"/>
<polygon fill="black" stroke="black" points="314.78,-103.79 318.28,-113.79 321.78,-103.79 314.78,-103.79"/>
</g>
<!-- LoginComponent -->
<g id="node7" class="node">
<title>LoginComponent</title>
<polygon fill="#ffffb3" stroke="black" points="912.27,-84.8 797.73,-84.8 797.73,-48.8 912.27,-48.8 912.27,-84.8"/>
<text text-anchor="middle" x="855" y="-62.6" font-family="Times,serif" font-size="14.00">LoginComponent</text>
</g>
<!-- AuthModule -->
<g id="node9" class="node">
<title>AuthModule</title>
<polygon fill="#8dd3c7" stroke="black" points="764.55,-149.8 761.55,-153.8 740.55,-153.8 737.55,-149.8 677.45,-149.8 677.45,-113.8 764.55,-113.8 764.55,-149.8"/>
<text text-anchor="middle" x="721" y="-127.6" font-family="Times,serif" font-size="14.00">AuthModule</text>
</g>
<!-- LoginComponent&#45;&gt;AuthModule -->
<g id="edge5" class="edge">
<title>LoginComponent&#45;&gt;AuthModule</title>
<path fill="none" stroke="black" d="M855,-84.91C855,-104.14 855,-131.8 855,-131.8 855,-131.8 774.88,-131.8 774.88,-131.8"/>
<polygon fill="black" stroke="black" points="774.88,-128.3 764.88,-131.8 774.88,-135.3 774.88,-128.3"/>
</g>
<!-- SigninComponent -->
<g id="node8" class="node">
<title>SigninComponent</title>
<polygon fill="#ffffb3" stroke="black" points="779.9,-84.8 662.1,-84.8 662.1,-48.8 779.9,-48.8 779.9,-84.8"/>
<text text-anchor="middle" x="721" y="-62.6" font-family="Times,serif" font-size="14.00">SigninComponent</text>
</g>
<!-- SigninComponent&#45;&gt;AuthModule -->
<g id="edge6" class="edge">
<title>SigninComponent&#45;&gt;AuthModule</title>
<path fill="none" stroke="black" d="M721,-84.91C721,-84.91 721,-103.79 721,-103.79"/>
<polygon fill="black" stroke="black" points="717.5,-103.79 721,-113.79 724.5,-103.79 717.5,-103.79"/>
</g>
<!-- AuthRoutingModule -->
<g id="node10" class="node">
<title>AuthRoutingModule</title>
<polygon fill="#8dd3c7" stroke="black" points="638.17,-84.8 635.17,-88.8 614.17,-88.8 611.17,-84.8 505.83,-84.8 505.83,-48.8 638.17,-48.8 638.17,-84.8"/>
<text text-anchor="middle" x="572" y="-62.6" font-family="Times,serif" font-size="14.00">AuthRoutingModule</text>
</g>
<!-- AuthRoutingModule&#45;&gt;AuthModule -->
<g id="edge7" class="edge">
<title>AuthRoutingModule&#45;&gt;AuthModule</title>
<path fill="none" stroke="black" d="M572,-84.91C572,-104.14 572,-131.8 572,-131.8 572,-131.8 667.1,-131.8 667.1,-131.8"/>
<polygon fill="black" stroke="black" points="667.1,-135.3 677.1,-131.8 667.1,-128.3 667.1,-135.3"/>
</g>
<!-- PublicRoutingModule -->
<g id="node11" class="node">
<title>PublicRoutingModule</title>
<polygon fill="#8dd3c7" stroke="black" points="1092.45,-84.8 1089.45,-88.8 1068.45,-88.8 1065.45,-84.8 951.55,-84.8 951.55,-48.8 1092.45,-48.8 1092.45,-84.8"/>
<text text-anchor="middle" x="1022" y="-62.6" font-family="Times,serif" font-size="14.00">PublicRoutingModule</text>
</g>
<!-- PublicModule -->
<g id="node12" class="node">
<title>PublicModule</title>
<polygon fill="#8dd3c7" stroke="black" points="1069.83,-149.8 1066.83,-153.8 1045.83,-153.8 1042.83,-149.8 974.17,-149.8 974.17,-113.8 1069.83,-113.8 1069.83,-149.8"/>
<text text-anchor="middle" x="1022" y="-127.6" font-family="Times,serif" font-size="14.00">PublicModule</text>
</g>
<!-- PublicRoutingModule&#45;&gt;PublicModule -->
<g id="edge8" class="edge">
<title>PublicRoutingModule&#45;&gt;PublicModule</title>
<path fill="none" stroke="black" d="M1022,-84.91C1022,-84.91 1022,-103.79 1022,-103.79"/>
<polygon fill="black" stroke="black" points="1018.5,-103.79 1022,-113.79 1025.5,-103.79 1018.5,-103.79"/>
</g>
</g>
</svg>
